# xmcd
#
# Track frame offsets: 
#        150
#        15632
#        32347
#        48312
#        71333
#        87778
#        101866
#        115555
#
# Disc length: 1742 seconds
#
# Revision: 0
# Processed by: cddbd v1.5.2PL0 Copyright (c) Steve Scherf et al.
# Submitted via: ExactAudioCopy v0.99pb4
#
DISCID=5506cc08
DTITLE=Various Artist - Rockin' the Country
DYEAR=2006
DGENRE=Country
TTITLE0=Some Beach
TTITLE1=Redneck Yacht Club
TTITLE2=Girls Lie Too
TTITLE3=Hicktown
TTITLE4=Billy's Got His Beer Goggles On
TTITLE5=Everywhere But Hollywood
TTITLE6=Watermelon Crawl
TTITLE7=Tennessee River Run
EXTD=
EXTT0=
EXTT1=
EXTT2=
EXTT3=
EXTT4=
EXTT5=
EXTT6=
EXTT7=
PLAYORDER=
